<?xml version="1.0" standalone="no"?><!DOCTYPE svg PUBLIC "-//W3C//DTD SVG 1.1//EN" "http://www.w3.org/Graphics/SVG/1.1/DTD/svg11.dtd"><svg t="1545216499621" class="icon" style="" viewBox="0 0 1024 1024" version="1.1" xmlns="http://www.w3.org/2000/svg" p-id="2367" xmlns:xlink="http://www.w3.org/1999/xlink" width="200" height="200"><defs><style type="text/css"></style></defs><path d="M511.1 511.6m-447.8 0a447.8 447.8 0 1 0 895.6 0 447.8 447.8 0 1 0-895.6 0Z" fill="#90DFAA" p-id="2368"></path><path d="M717.9 908.8c142.7-74.4 240.2-223.4 240.9-395.3L829.2 384l-38.6 10.6-175.7-176.7-47 156.1-373.5 13 523.5 521.8z" fill="#6CBC82" p-id="2369"></path><path d="M555 622.8v-48.7h-87.8v48.7c0 3.9-3.1 7-7 7h-60.5v167.9h222.8V629.8H562c-3.9 0-7-3.2-7-7z" fill="#FED8B2" p-id="2370"></path><path d="M622.5 629.8H562c-3.9 0-7-3.1-7-7v-48.7h-43.9v223.6h111.4V629.8z" fill="#EABE96" p-id="2371"></path><path d="M365.2 472.1m-35.1 0a35.1 35.1 0 1 0 70.2 0 35.1 35.1 0 1 0-70.2 0Z" fill="#FED8B2" p-id="2372"></path><path d="M649.5 472.1m-35.1 0a35.1 35.1 0 1 0 70.2 0 35.1 35.1 0 1 0-70.2 0Z" fill="#EABE96" p-id="2373"></path><path d="M511.3 618.2h-7.9c-73.1 0-132.4-59.3-132.4-132.4V365c0-73.1 59.3-132.4 132.4-132.4h7.9c73.1 0 132.4 59.3 132.4 132.4v120.9c0 73-59.3 132.3-132.4 132.3z" fill="#F4E3C3" p-id="2374"></path><path d="M511.3 232.6h-0.2v385.6h0.2c73.1 0 132.4-59.3 132.4-132.4V365c0-73.1-59.3-132.4-132.4-132.4z" fill="#FED8B2" p-id="2375"></path><path d="M629.3 277.3c-26-37-69-61.3-117.7-61.3h-0.6v171c17.7-5.8 35-12.7 51.5-21 19.9 22.8 42.8 43.2 68.1 59.7V472h24.7V359.6c0.1-30.5-9.6-58.9-26-82.3z" fill="#935635" p-id="2376"></path><path d="M503.1 216.1c-79.4 0-143.7 64.3-143.7 143.7v112.3h21.1v-59.4c44.8-4.6 89.2-12.1 130.7-25.7V216h-8.1v0.1z" fill="#B97850" p-id="2377"></path><path d="M443.1 456.6m-13.6 0a13.6 13.6 0 1 0 27.2 0 13.6 13.6 0 1 0-27.2 0Z" fill="#59595B" p-id="2378"></path><path d="M571.6 456.6m-13.6 0a13.6 13.6 0 1 0 27.2 0 13.6 13.6 0 1 0-27.2 0Z" fill="#272525" p-id="2379"></path><path d="M632 629.8h-46.7c0 41-33.2 50.7-74.3 50.7s-74.3-9.7-74.3-50.7H390c-56.2 0-101.8 45.6-101.8 101.8v168.5c65.6 37.7 141.7 59.3 222.8 59.3s157.2-21.6 222.8-59.3V731.6c0.1-56.2-45.5-101.8-101.8-101.8z" fill="#2B3B4E" p-id="2380"></path><path d="M733.9 731.6c0-56.2-45.6-101.8-101.8-101.8h-46.7c0 41-33.2 50.7-74.3 50.7v278.9c81.1 0 157.2-21.6 222.8-59.3V731.6z" fill="#1E2C3A" p-id="2381"></path><path d="M507.4 568.3c-24.6 0-44.5-20-44.5-44.5 0-4.2 3.4-7.5 7.5-7.5s7.5 3.4 7.5 7.5c0 16.2 13.2 29.5 29.5 29.5 16.2 0 29.5-13.2 29.5-29.5 0-4.2 3.4-7.5 7.5-7.5 4.2 0 7.5 3.4 7.5 7.5 0 24.5-20 44.5-44.5 44.5z" fill="#FD8469" p-id="2382"></path><path d="M551.9 523.7c0-4.2-3.4-7.5-7.5-7.5-4.2 0-7.5 3.4-7.5 7.5 0 15-11.2 27.4-25.7 29.2v15.2c22.7-1.9 40.7-21.1 40.7-44.4z" fill="#FC6F58" p-id="2383"></path><path d="M680.1 357c-13.9-84.9-74.3-171.6-120.3-171.6-17.8 0-34.5 8.9-48.7 24.3-14.2-15.4-30.9-24.3-48.7-24.3-45.9 0-106.3 86.8-120.3 171.6-89.6 5.6-149.1 15.6-149.1 27 0 17.6 142.4 31.8 318.1 31.8s318.1-14.2 318.1-31.8c0-11.4-59.6-21.4-149.1-27z" fill="#324A5E" p-id="2384"></path><path d="M680.1 357c-13.9-84.9-74.3-171.6-120.3-171.6-17.8 0-34.5 8.9-48.7 24.3v206.1c175.7 0 318.1-14.2 318.1-31.8 0-11.4-59.6-21.4-149.1-27z" fill="#2B3B4E" p-id="2385"></path><path d="M790 625.1h39.2V778H790z" fill="#324A5E" p-id="2386"></path><path d="M807.6 625.1h21.6V778h-21.6z" fill="#2B3B4E" p-id="2387"></path><path d="M809.6 561.4m-81.4 0a81.4 81.4 0 1 0 162.8 0 81.4 81.4 0 1 0-162.8 0Z" fill="#B5F1F4" p-id="2388"></path><path d="M809.6 480c-0.7 0-1.3 0-2 0.1v162.7c0.7 0 1.3 0.1 2 0.1 45 0 81.4-36.4 81.4-81.4 0-45.1-36.4-81.5-81.4-81.5z" fill="#84DBFF" p-id="2389"></path><path d="M809.6 657.9c-53.2 0-96.5-43.3-96.5-96.5s43.3-96.5 96.5-96.5 96.5 43.3 96.5 96.5-43.3 96.5-96.5 96.5z m0-162.9c-36.6 0-66.3 29.8-66.3 66.3s29.8 66.3 66.3 66.3c36.6 0 66.3-29.8 66.3-66.3S846.2 495 809.6 495z" fill="#2B3B4E" p-id="2390"></path><path d="M809.6 464.9c-0.7 0-1.3 0-2 0.1v30.2c0.7 0 1.3-0.1 2-0.1 36.6 0 66.3 29.8 66.3 66.3s-29.8 66.3-66.3 66.3c-0.7 0-1.3 0-2-0.1v30.2c0.7 0 1.3 0.1 2 0.1 53.2 0 96.5-43.3 96.5-96.5s-43.3-96.5-96.5-96.5z" fill="#1E2C3A" p-id="2391"></path></svg>